<svg xmlns="http://www.w3.org/2000/svg" width="24" height="24" viewBox="0 0 24 24">
	<g id="icon" transform="translate(-109 -362)" opacity="0.7">
		<g id="사각형_53" transform="translate(109 362)" fill="none" stroke="#fff" stroke-width="1">
			<rect width="24" height="24" rx="4" stroke="none"/>
			<rect x="0.5" y="0.5" width="23" height="23" rx="3.5" fill="none"/>
		</g>
		<path id="won" d="M4.016,8.336,4.648,6H3.406l.586,2.344A.032.032,0,0,1,4,8.367a.032.032,0,0,0,.008.023.164.164,0,0,1,0-.027A.164.164,0,0,0,4.016,8.336ZM4.922,5,5.2,4H2.914l.25,1Zm1.5,0H7.508L7.234,4H6.687ZM9.93,8.344,10.539,6H9.273l.633,2.336a.164.164,0,0,0,0,.027.053.053,0,0,0,.012.027.106.106,0,0,1,0-.023.106.106,0,0,0,0-.023ZM10.8,5l.258-1H8.734L9,5Zm3.2.25v.5a.241.241,0,0,1-.25.25H12.086L10.8,10.813a.233.233,0,0,1-.242.187H9.32a.233.233,0,0,1-.242-.187L7.781,6H6.148l-1.3,4.812A.233.233,0,0,1,4.6,11H3.359a.233.233,0,0,1-.152-.055.226.226,0,0,1-.082-.133L1.875,6H.25A.241.241,0,0,1,0,5.75v-.5A.241.241,0,0,1,.25,5H1.617L1.36,4H.25A.241.241,0,0,1,0,3.75v-.5A.241.241,0,0,1,.25,3H1.1L.406.313A.225.225,0,0,1,.445.094.252.252,0,0,1,.648,0h1.07a.22.22,0,0,1,.242.187L2.664,3h2.8L6.227.187A.233.233,0,0,1,6.469,0h.984A.233.233,0,0,1,7.7.187L8.461,3h2.852L12.039.187A.22.22,0,0,1,12.281,0h1.07a.252.252,0,0,1,.2.094.224.224,0,0,1,.039.219L12.883,3h.867a.241.241,0,0,1,.25.25v.5a.241.241,0,0,1-.25.25H12.617l-.266,1h1.4a.241.241,0,0,1,.25.25Z" transform="translate(114 368)" fill="#fff"/>
	</g>
</svg>
