<svg xmlns="http://www.w3.org/2000/svg" width="24" height="24" viewBox="0 0 24 24">
	<g id="icon" transform="translate(-109 -362)" opacity="0.7">
		<g id="사각형_53" transform="translate(109 362)" fill="none" stroke="#fff" stroke-width="1">
			<rect width="24" height="24" rx="4" stroke="none"/>
			<rect x="0.5" y="0.5" width="23" height="23" rx="3.5" fill="none"/>
		</g>
		<g id="list-check" transform="translate(112.247 364.623)">
			<path id="패스_63" d="M5.966,13.326a.465.465,0,0,1,.465-.465h8.363a.465.465,0,1,1,0,.929H6.431A.465.465,0,0,1,5.966,13.326Zm0-3.717a.465.465,0,0,1,.465-.465h8.363a.465.465,0,1,1,0,.929H6.431A.465.465,0,0,1,5.966,9.609Zm0-3.717a.465.465,0,0,1,.465-.465h8.363a.465.465,0,1,1,0,.929H6.431A.465.465,0,0,1,5.966,5.892ZM4.9,4.634a.465.465,0,0,1,0,.658L3.507,6.686a.465.465,0,0,1-.658,0l-.465-.465a.465.465,0,0,1,.658-.658l.136.136L4.243,4.634a.465.465,0,0,1,.658,0Zm0,3.717a.465.465,0,0,1,0,.658L3.507,10.4a.465.465,0,0,1-.658,0l-.465-.465a.465.465,0,0,1,.658-.658l.136.136L4.243,8.351a.465.465,0,0,1,.658,0Zm0,3.717a.465.465,0,0,1,0,.658L3.507,14.12a.465.465,0,0,1-.658,0l-.465-.465A.465.465,0,1,1,3.042,13l.135.137,1.065-1.066a.465.465,0,0,1,.658,0Z" fill="#fff" fill-rule="evenodd"/>
		</g>
	</g>
</svg>
